<svg width="100%" height="100%" viewBox="0 0 1277 249" fill="#1d3a24" xmlns="http://www.w3.org/2000/svg">
<path d="M1167.4 75.1602C1135.97 75.1602 1115.66 99.7196 1115.66 137.736C1115.66 172.945 1136 197.504 1165.13 197.504C1191.32 197.504 1206.93 174.158 1210.79 151.03L1210.94 150.124L1205.94 147.408L1205.5 148.965C1199.41 170.563 1187.68 181.068 1169.67 181.068C1146.12 181.068 1131.45 159.189 1131.11 123.862H1211.56V122.576C1211.56 94.7026 1193.4 75.1602 1167.4 75.1602ZM1185.27 115.006H1131.46C1133.35 95.9886 1149.57 84.2884 1163 84.2884C1170.75 84.2884 1178.33 86.8965 1183.2 91.8229C1185.24 93.9064 1186.92 96.3111 1188.18 98.9408C1190.71 104.456 1193.21 115.006 1185.27 115.006Z" fill="#1d3a24"/>
<path d="M1062.32 75.1602C1030.89 75.1602 1010.59 99.7196 1010.59 137.736C1010.59 172.945 1030.93 197.504 1060.05 197.504C1086.25 197.504 1101.85 174.158 1105.71 151.03L1105.85 150.124L1100.86 147.408L1100.42 148.965C1094.33 170.563 1082.6 181.068 1064.59 181.068C1041.09 181.068 1026.38 159.189 1026.03 123.862H1106.48V122.576C1106.48 94.7026 1088.32 75.1602 1062.32 75.1602ZM1080.19 115.006H1026.38C1028.27 95.9886 1044.45 84.2884 1057.92 84.2884C1065.67 84.2884 1073.24 86.8965 1078.12 91.8229C1080.15 93.9064 1081.84 96.3111 1083.1 98.9408C1085.63 104.456 1088.14 115.006 1080.19 115.006Z" fill="#1d3a24"/>
<path d="M897.487 26.6645C922.961 26.6645 929.907 31.781 936.608 55.4892L936.871 56.3948H941.462L939.578 17.5H818.773V23.341H820.041C842.482 23.5855 842.482 29.4084 842.482 51.0609V161.986C842.482 182.986 841.657 187.949 820.041 188.193H818.773V194.034H884.401V188.193H883.124C860.684 187.949 860.684 183.982 860.684 161.986V102.842H890.677C909.694 102.842 914.149 106.899 914.62 124.576V125.826H920.443V71.5361H914.638V72.7949C914.158 90.2274 909.694 94.2391 890.695 94.2391H860.684V26.6645H897.487Z" fill="#1d3a24"/>
<path d="M999.554 75.1602C986.45 75.1602 974.252 88.6624 968.546 96.7855V75.1602H964.489L930.738 89.1333L933.057 94.2408L934.198 93.7789C936.797 92.7375 940.582 91.352 943.299 91.352C948.017 91.352 951.349 92.4749 951.349 106.964V172.547C951.349 185.225 948.777 187.67 935.185 188.159L933.944 188.204V194.009H989.185V188.195H987.935C969.95 187.688 968.247 185.071 968.247 173.081V112.108C973.255 102.5 980.6 92.9005 985.879 92.9005C988.768 92.9005 990.561 93.9057 992.644 95.0649C995.212 96.7367 998.201 97.6472 1001.27 97.6911C1007.93 97.6911 1013.15 93.1631 1013.15 87.3221C1013.19 79.9597 1007.84 75.1602 999.554 75.1602Z" fill="#1d3a24"/>
<path d="M66.9135 15.8486H0V21.6806H1.26782C20.3484 21.9251 23.7082 25.3029 23.7082 44.1028V164.88C23.7082 183.898 19.7236 188.072 1.26782 188.317H0V194.158H65.6276V188.362H64.3598C44.2287 188.118 41.9194 185.709 41.9194 164.926V107.602C50.9753 109.558 64.7764 112.13 73.7235 112.13C102.53 112.13 123.431 92.6059 123.431 65.701C123.431 36.0341 101.778 15.8486 66.9135 15.8486ZM70.6898 102.911C63.3817 102.911 49.1641 100.865 41.9194 99.3706V27.748C48.2585 26.3625 58.4735 25.7376 63.8798 25.7376C87.0809 25.7376 100.936 42.2464 100.936 66.8692C100.936 87.7519 88.2219 102.911 70.6898 102.911Z" fill="#1d3a24"/>
<path d="M220.535 174.063C216.577 178.256 212.095 183.019 207.295 183.019C205.176 183.019 202.278 183.019 202.278 168.919V107.339C202.278 87.5614 189.029 75.2817 167.694 75.2817C141.812 75.2817 125.802 91.1385 125.802 105.827C125.802 112.583 129.469 116.948 135.156 116.948C144.674 116.948 145.77 106.715 145.77 99.0171C145.77 89.2368 152.643 83.4048 164.162 83.4048C184.945 83.4048 185.317 101.879 185.326 118.541C138.978 135.403 122.523 148.362 122.523 167.869C122.523 185.69 133.173 197.662 149.03 197.662C160.802 197.662 169.098 192.89 185.407 179.605C186.095 190.662 191.167 197.662 198.719 197.662C205.964 197.662 217.103 188.606 222.98 180.212L224.012 178.4L221.594 172.967L220.535 174.063ZM185.326 169.779C170.664 180.438 164.715 183.771 156.591 183.771C148.323 183.771 139.974 177.431 139.974 163.368C139.974 149.992 153.983 138.781 185.326 127.144V169.779Z" fill="#1d3a24"/>
<path d="M316.683 148.178L311.358 145.96L311.005 147.427C305.708 169.405 293.02 182.02 276.195 182.02C254.289 182.02 238.387 158.91 238.387 127.06C238.387 101.976 252.486 84.4979 272.663 84.4979C283.765 84.4979 289.208 89.2794 290.304 100.02C291.436 109.075 295.402 113.504 302.429 113.504C309.131 113.504 313.296 109.438 313.296 102.881C313.296 88.4825 295.493 75.3696 275.941 75.3696C245.151 75.3696 223.707 100.164 223.707 135.672C223.707 172.801 242.471 197.75 270.399 197.75C294.687 197.75 312.807 178.733 316.584 149.211L316.683 148.178Z" fill="#1d3a24"/>
<path d="M401.442 168.114L366.614 124.646L394.27 98.2214C404.865 88.1151 413.17 84.701 427.179 84.701H428.465V78.851H380.741V84.6558H381.981C388.764 84.9184 389.316 86.4669 389.316 88.4139C389.316 91.2122 385.613 94.6353 382.624 97.3792L350.775 127.263V16.5469H346.718L313.465 30.2755L315.81 35.4283L316.979 34.894C319.761 33.6565 322.742 32.9266 325.781 32.7387C329.756 32.7387 333.822 34.0518 333.822 43.814V172.706C333.822 184.813 330.2 188.318 317.712 188.318H316.426V194.168H368.18V188.363H366.894C354.841 188.363 350.775 184.424 350.775 172.751V133.385L387.107 178.094C388.61 179.796 390.322 182.106 390.322 184.813C390.322 187.738 387.931 188.318 383.792 188.318H382.507V194.168H434.016V188.363H432.73C422.361 188.363 412.717 182.087 401.442 168.114Z" fill="#1d3a24"/>
<path d="M535.762 176.399C535.877 174.926 536.181 173.475 536.667 172.079L536.332 171.835L534.222 174.072C530.274 178.265 525.791 183.019 520.992 183.019C518.873 183.019 515.975 183.019 515.975 168.919V107.339C515.975 87.5614 502.717 75.2817 481.39 75.2817C455.509 75.2817 439.489 91.1385 439.489 105.827C439.489 112.583 443.166 116.948 448.853 116.948C458.371 116.948 459.466 106.715 459.466 99.0171C459.466 89.2368 466.34 83.4048 477.859 83.4048C498.642 83.4048 499.013 101.879 499.022 118.541C452.674 135.403 436.211 148.362 436.211 167.869C436.211 185.69 446.861 197.662 462.717 197.662C474.49 197.662 482.794 192.89 499.104 179.605C499.792 190.662 504.863 197.662 512.416 197.662C519.425 197.662 530.102 189.195 536.106 181.009C535.767 179.497 535.652 177.944 535.762 176.399ZM499.022 169.779C484.361 180.438 478.402 183.771 470.288 183.771C462.011 183.771 453.662 177.431 453.662 163.368C453.662 149.992 467.671 138.781 499.022 127.144V169.779Z" fill="#1d3a24"/>
<path d="M603.815 177.975C565.192 177.468 558.671 175.086 558.671 169.925C558.671 164.989 564.268 158.65 567.981 155.29C573.505 157.509 580.405 157.844 584.127 157.844C614.129 157.844 627.785 137.305 627.785 118.216C627.785 111.877 625.395 101.644 622.017 95.5762L642.764 95.3951L642.999 83.4414C643.001 83.3451 642.982 83.2496 642.945 83.1608C642.908 83.0721 642.852 82.992 642.783 82.9256C642.713 82.8592 642.63 82.8081 642.54 82.7753C642.449 82.7425 642.353 82.7288 642.257 82.735L612.78 84.673C604.168 78.5693 594.958 75.3455 586.138 75.3455C560.7 75.3455 542.226 93.1764 542.226 117.745C542.226 132.868 548.447 144.505 560.247 151.532C552.812 158.197 542.987 167.244 542.987 178.03C542.987 183.952 548.719 187.085 554.044 189.494C541.882 200.633 532.898 214.443 532.898 222.168C532.898 237.789 558.255 248.674 581.103 248.674C621.718 248.674 644.176 223.01 644.176 205.269C644.176 186.633 631.734 178.22 603.815 177.975ZM560.193 112.166C560.193 92.6421 571.594 82.4271 582.832 82.4271C599.812 82.4271 609.547 96.3912 609.547 120.742C609.547 140.077 601.397 150.735 586.618 150.735C570.326 150.735 560.193 135.956 560.193 112.166ZM588.918 236.231C563.072 236.231 547.071 225.509 547.071 215.575C547.071 210.141 553.546 200.397 562.538 192.256C571.476 194.23 592.377 194.176 601.478 194.158H603.579C630.022 194.158 635.338 199.456 635.338 208.004C635.302 221.642 616.701 236.24 588.918 236.24V236.231Z" fill="#1d3a24"/>
<path d="M695.013 75.3149C663.59 75.3149 643.277 99.8744 643.277 137.891C643.277 173.1 663.617 197.659 692.74 197.659C718.939 197.659 734.551 174.313 738.4 151.185L738.554 150.279L733.519 147.608L733.084 149.165C726.98 170.763 715.262 181.268 697.241 181.268C673.696 181.268 659.035 159.389 658.69 124.062H739.142V122.777C739.179 94.8212 721.022 75.3149 695.013 75.3149ZM712.88 115.161H659.08C660.963 96.1433 677.191 84.4432 690.621 84.4432C698.364 84.4432 705.944 87.0513 710.816 91.9777C712.855 94.0612 714.538 96.4659 715.796 99.0956C718.323 104.574 720.841 115.161 712.88 115.161Z" fill="#1d3a24"/>
</svg>